<svg width="78" height="80" viewBox="0 0 78 80" fill="none" xmlns="http://www.w3.org/2000/svg">
<g id="Group">
<path id="Vector" d="M22.0047 25.7143C25.0358 25.7143 27.9427 24.5102 30.086 22.3669C32.2292 20.2237 33.4333 17.3168 33.4333 14.2857C33.4333 11.2547 32.2292 8.34777 30.086 6.2045C27.9427 4.06123 25.0358 2.85715 22.0047 2.85715C18.9737 2.85715 16.0668 4.06123 13.9235 6.2045C11.7803 8.34777 10.5762 11.2547 10.5762 14.2857C10.5762 17.3168 11.7803 20.2237 13.9235 22.3669C16.0668 24.5102 18.9737 25.7143 22.0047 25.7143Z" stroke="#ADCBE9" stroke-width="4" stroke-linecap="round" stroke-linejoin="round"/>
<path id="Vector_2" d="M31.64 60.1372L29.5143 77.1429H14.56L11.7029 54.2857H2V45.7143C2.00076 40.7254 3.86605 35.9169 7.22978 32.2325C10.5935 28.5482 15.2128 26.254 20.181 25.8002C25.1492 25.3465 30.1077 26.766 34.0832 29.7801C38.0586 32.7941 40.7641 37.1852 41.6686 42.0914M51.4114 51.9314V48.2172C51.4114 46.7016 52.0135 45.2482 53.0851 44.1765C54.1567 43.1049 55.6102 42.5029 57.1257 42.5029H59.48C60.9955 42.5029 62.449 43.1049 63.5206 44.1765C64.5922 45.2482 65.1943 46.7016 65.1943 48.2172V51.9314M40.6629 56.9714C40.6629 54.1886 42.92 51.9314 45.7029 51.9314H70.9143C73.6971 51.9314 75.9543 54.1886 75.9543 56.9772V72.1029C75.9543 73.4396 75.4233 74.7215 74.4781 75.6667C73.5329 76.6119 72.251 77.1429 70.9143 77.1429H45.7029C44.3662 77.1429 43.0842 76.6119 42.139 75.6667C41.1939 74.7215 40.6629 73.4396 40.6629 72.1029V56.9714Z" stroke="#ADCBE9" stroke-width="4" stroke-linecap="round" stroke-linejoin="round"/>
</g>
</svg>
