<svg width="80" height="80" viewBox="0 0 80 80" fill="none" xmlns="http://www.w3.org/2000/svg">
<g id="iconoir:suitcase">
<path id="Vector" d="M26.666 23.3333H13.3327C11.5646 23.3333 9.86888 24.0357 8.61864 25.286C7.36839 26.5362 6.66602 28.2319 6.66602 30V63.3333C6.66602 65.1014 7.36839 66.7971 8.61864 68.0474C9.86888 69.2976 11.5646 70 13.3327 70H66.666C68.4341 70 70.1298 69.2976 71.3801 68.0474C72.6303 66.7971 73.3327 65.1014 73.3327 63.3333V30C73.3327 28.2319 72.6303 26.5362 71.3801 25.286C70.1298 24.0357 68.4341 23.3333 66.666 23.3333H53.3327M26.666 23.3333V12C26.666 11.4696 26.8767 10.9609 27.2518 10.5858C27.6269 10.2107 28.1356 10 28.666 10H51.3327C51.8631 10 52.3718 10.2107 52.7469 10.5858C53.122 10.9609 53.3327 11.4696 53.3327 12V23.3333M26.666 23.3333H53.3327" stroke="#99CFD9" stroke-width="4"/>
</g>
</svg>
