<svg width="33" height="26" viewBox="0 0 33 26" fill="none" xmlns="http://www.w3.org/2000/svg">
<g id="Group 633166">
<path id="Vector" fill-rule="evenodd" clip-rule="evenodd" d="M23.2233 11.3321L16.6918 11.3321C16.6918 8.64521 14.4173 6.46694 11.6117 6.46694C8.806 6.46694 6.53157 8.64521 6.53157 11.3321L-6.18698e-07 11.3321C-2.77001e-07 5.19048 5.19872 0.211708 11.6117 0.211709C18.0246 0.211709 23.2234 5.19048 23.2233 11.3321Z" fill="#347DCA"/>
<path id="Vector_2" fill-rule="evenodd" clip-rule="evenodd" d="M8.83329 14.6678L15.3649 14.6678C15.3649 17.3547 17.6394 19.5329 20.445 19.5329C23.2506 19.5329 25.5251 17.3547 25.5251 14.6678L32.0566 14.6678C32.0566 20.8094 26.8579 25.7882 20.445 25.7882C14.0321 25.7882 8.83329 20.8094 8.83329 14.6678Z" fill="#0088A1"/>
</g>
</svg>
