<svg width="15" height="20" viewBox="0 0 15 20" fill="none" xmlns="http://www.w3.org/2000/svg">
<path id="Vector" fill-rule="evenodd" clip-rule="evenodd" d="M14.0268 5.47176C14.1479 6.03225 13.7919 6.58466 13.2314 6.70603L10.0031 7.40403C9.45665 7.5223 9.06669 8.00561 9.06669 8.56467V9.60918C9.06669 10.7442 9.27022 11.8702 9.66732 12.9337L11.5965 18.098C11.7972 18.6352 11.5243 19.2333 10.9871 19.4339C10.4499 19.6346 9.85185 19.3617 9.6514 18.8248L7.80582 13.8848C7.61368 13.3702 6.88575 13.3702 6.69338 13.8848L4.84803 18.8248C4.64735 19.362 4.04933 19.6349 3.51211 19.4339C2.9749 19.2333 2.70225 18.6352 2.90294 18.098L4.83212 12.9334C5.22945 11.8702 5.43275 10.7442 5.43275 9.60895V8.56444C5.43275 8.00537 5.04278 7.52183 4.4963 7.40379L1.26825 6.70579C0.707754 6.58466 0.351747 6.03201 0.47287 5.47152C0.593993 4.91103 1.14665 4.55502 1.70714 4.67614L6.24594 5.65748C6.9076 5.80045 7.59207 5.80045 8.2535 5.65748L12.7923 4.67614C13.3528 4.55502 13.9054 4.91126 14.0268 5.47176ZM7.1983 0.5C8.34517 0.5 9.27473 1.42956 9.27473 2.57643C9.27473 3.7233 8.34517 4.65287 7.1983 4.65287C6.05143 4.65287 5.12187 3.7233 5.12187 2.57643C5.12187 1.42956 6.05143 0.5 7.1983 0.5Z" fill="white"/>
</svg>
