<svg width="25" height="24" viewBox="0 0 25 24" fill="none" xmlns="http://www.w3.org/2000/svg">
<g id="search">
<mask id="mask0_1516_1243" style="mask-type:alpha" maskUnits="userSpaceOnUse" x="0" y="0" width="25" height="24">
<rect id="Bounding box" x="0.5" width="24" height="24" fill="#D9D9D9"/>
</mask>
<g mask="url(#mask0_1516_1243)">
<path id="search_2" d="M19.9013 20.7183L20.0427 20.8597L20.1841 20.7183L21.238 19.6645L21.3794 19.5231L21.238 19.3816L15.084 13.2277C15.4467 12.7599 15.7393 12.2219 15.963 11.6154C16.2112 10.9425 16.335 10.237 16.335 9.49999C16.335 7.73898 15.7225 6.24121 14.4995 5.01898C13.2765 3.79679 11.7786 3.18464 10.0181 3.18464C8.2575 3.18464 6.76009 3.79719 5.53816 5.02018L5.53816 5.02018C4.31628 6.24315 3.7043 7.74104 3.7043 9.50157C3.7043 11.2621 4.31645 12.7595 5.53869 13.9814C6.76094 15.2034 8.25869 15.8153 10.0196 15.8153C10.7374 15.8153 11.4327 15.6947 12.1045 15.4536C12.7144 15.2347 13.2623 14.9383 13.747 14.564L19.9013 20.7183ZM13.1523 12.6326C12.2963 13.4886 11.2562 13.9154 10.0196 13.9154C8.7831 13.9154 7.74296 13.4886 6.88702 12.6326C6.0311 11.7767 5.60427 10.7365 5.60427 9.49999C5.60427 8.26345 6.0311 7.22331 6.88702 6.36737C7.74296 5.51143 8.7831 5.08459 10.0196 5.08459C11.2562 5.08459 12.2963 5.51143 13.1523 6.36737C14.0082 7.22331 14.435 8.26345 14.435 9.49999C14.435 10.7365 14.0082 11.7767 13.1523 12.6326Z" fill="#0088A1" stroke="#0088A1" stroke-width="0.4"/>
</g>
</g>
</svg>
