<svg width="23" height="22" viewBox="0 0 23 22" fill="none" xmlns="http://www.w3.org/2000/svg">
<g id="logos:facebook" clip-path="url(#clip0_1968_20650)">
<path id="Vector" d="M22.5 11C22.5 4.92491 17.5751 0 11.5 0C5.42491 0 0.5 4.92491 0.5 11C0.5 16.4904 4.52256 21.0412 9.78125 21.8664V14.1797H6.98828V11H9.78125V8.57656C9.78125 5.81969 11.4235 4.29688 13.9362 4.29688C15.1396 4.29688 16.3984 4.51172 16.3984 4.51172V7.21875H15.0114C13.6449 7.21875 13.2188 8.0667 13.2188 8.93664V11H16.2695L15.7818 14.1797H13.2188V21.8664C18.4774 21.0412 22.5 16.4905 22.5 11Z" fill="#1877F2"/>
<path id="Vector_2" d="M15.7818 14.1797L16.2695 11H13.2188V8.93664C13.2188 8.06661 13.6449 7.21875 15.0114 7.21875H16.3984V4.51172C16.3984 4.51172 15.1396 4.29688 13.9361 4.29688C11.4235 4.29688 9.78125 5.81969 9.78125 8.57656V11H6.98828V14.1797H9.78125V21.8664C10.3498 21.9555 10.9245 22.0002 11.5 22C12.0755 22.0002 12.6502 21.9555 13.2188 21.8664V14.1797H15.7818Z" fill="white"/>
</g>
<defs>
<clipPath id="clip0_1968_20650">
<rect width="22" height="22" fill="white" transform="translate(0.5)"/>
</clipPath>
</defs>
</svg>
