<svg width="23" height="22" viewBox="0 0 23 22" fill="none" xmlns="http://www.w3.org/2000/svg">
<g id="flat-color-icons:google">
<path id="Vector" d="M20.489 9.20469H19.7507V9.16665H11.5007V12.8333H16.6812C15.9254 14.9678 13.8945 16.5 11.5007 16.5C8.46328 16.5 6.00065 14.0374 6.00065 11C6.00065 7.9626 8.46328 5.49998 11.5007 5.49998C12.9027 5.49998 14.1782 6.0289 15.1494 6.89285L17.7422 4.30006C16.1051 2.77427 13.9152 1.83331 11.5007 1.83331C6.43836 1.83331 2.33398 5.93769 2.33398 11C2.33398 16.0623 6.43836 20.1666 11.5007 20.1666C16.5629 20.1666 20.6673 16.0623 20.6673 11C20.6673 10.3854 20.6041 9.7854 20.489 9.20469Z" fill="#FFC107"/>
<path id="Vector_2" d="M3.39062 6.73335L6.40233 8.94206C7.21725 6.92448 9.19083 5.49998 11.5004 5.49998C12.9024 5.49998 14.178 6.0289 15.1492 6.89285L17.742 4.30006C16.1048 2.77427 13.9149 1.83331 11.5004 1.83331C7.97946 1.83331 4.92604 3.8211 3.39062 6.73335Z" fill="#FF3D00"/>
<path id="Vector_3" d="M11.5005 20.1667C13.8682 20.1667 16.0196 19.2606 17.6463 17.787L14.8092 15.3863C13.8579 16.1097 12.6956 16.501 11.5005 16.5C9.11622 16.5 7.09176 14.9797 6.32909 12.8581L3.33984 15.1612C4.85693 18.1298 7.93784 20.1667 11.5005 20.1667Z" fill="#4CAF50"/>
<path id="Vector_4" d="M20.4884 9.20473H19.75V9.16669H11.5V12.8334H16.6805C16.319 13.8492 15.6678 14.7369 14.8073 15.3867L14.8087 15.3858L17.6458 17.7866C17.445 17.969 20.6667 15.5834 20.6667 11C20.6667 10.3854 20.6034 9.78544 20.4884 9.20473Z" fill="#1976D2"/>
</g>
</svg>
