<svg width="23" height="22" viewBox="0 0 23 22" fill="none" xmlns="http://www.w3.org/2000/svg">
<g id="devicon:linkedin">
<path id="Vector" d="M20.4375 0.515643H2.5625C2.15693 0.511516 1.76628 0.668448 1.47628 0.952005C1.18628 1.23556 1.02061 1.62258 1.01562 2.02814V19.9753C1.02151 20.3803 1.18758 20.7664 1.47748 21.0492C1.76739 21.3321 2.15752 21.4885 2.5625 21.4844H20.4375C20.8431 21.4876 21.2335 21.3301 21.5233 21.0464C21.8132 20.7627 21.9789 20.3757 21.9844 19.9702V2.02299C21.9771 1.61861 21.8106 1.23344 21.5209 0.951184C21.2313 0.668929 20.8419 0.512408 20.4375 0.515643Z" fill="#0076B2"/>
<path id="Vector_2" d="M4.12055 8.37549H7.2332V18.3906H4.12055V8.37549ZM5.67774 3.39111C6.03474 3.39111 6.38373 3.497 6.68054 3.69538C6.97736 3.89376 7.20867 4.17571 7.34521 4.50557C7.48175 4.83544 7.51739 5.19839 7.44762 5.54851C7.37785 5.89863 7.20579 6.22019 6.95323 6.47252C6.70067 6.72484 6.37895 6.89658 6.02876 6.96602C5.67857 7.03546 5.31565 6.99948 4.98592 6.86262C4.65619 6.72576 4.37445 6.49419 4.17636 6.19718C3.97826 5.90018 3.87271 5.55109 3.87305 5.19408C3.8735 4.71575 4.06384 4.25716 4.40224 3.91909C4.74063 3.58101 5.1994 3.39111 5.67774 3.39111ZM9.1857 8.37549H12.1695V9.75049H12.2107C12.6266 8.9633 13.6407 8.13314 15.1549 8.13314C18.3071 8.12627 18.8915 10.2008 18.8915 12.8906V18.3906H15.7788V13.518C15.7788 12.3578 15.7582 10.8642 14.1615 10.8642C12.5648 10.8642 12.2932 12.1292 12.2932 13.4424V18.3906H9.1857V8.37549Z" fill="white"/>
</g>
</svg>
