<svg width="60" height="60" viewBox="0 0 60 60" fill="none" xmlns="http://www.w3.org/2000/svg">
<g id="fluent-mdl2:waving-hand">
<path id="Vector" d="M56.25 41.0449C56.25 42.666 56.0645 44.2578 55.6934 45.8203C55.3223 47.3828 54.7656 48.8672 54.0234 50.2734C53.2812 51.6797 52.4121 52.9688 51.416 54.1406C50.4199 55.3125 49.2578 56.3379 47.9297 57.2168C46.6016 58.0957 45.1953 58.7598 43.7109 59.209C42.2266 59.6582 40.6152 59.9023 38.877 59.9414C37.7246 59.9414 36.5723 59.834 35.4199 59.6191C34.2676 59.4043 33.1543 59.082 32.0801 58.6523C31.0059 58.2227 29.9707 57.6953 28.9746 57.0703C27.9785 56.4453 27.0801 55.7129 26.2793 54.873L8.08594 36.6797C7.55859 36.1523 7.1582 35.5469 6.88477 34.8633C6.61133 34.1797 6.46484 33.457 6.44531 32.6953C6.44531 31.582 6.74805 30.5664 7.35352 29.6484C7.95898 28.7305 8.7793 28.0371 9.81445 27.5684C9.32617 26.6895 9.08203 25.7617 9.08203 24.7852C9.08203 23.6719 9.38477 22.6465 9.99023 21.709C10.5957 20.7715 11.4258 20.0781 12.4805 19.6289C11.9727 18.7695 11.7188 17.8418 11.7188 16.8457C11.7188 16.0645 11.8652 15.332 12.1582 14.6484C12.4512 13.9648 12.8516 13.3691 13.3594 12.8613C13.8672 12.3535 14.4629 11.9531 15.1465 11.6602C15.8301 11.3672 16.5625 11.2207 17.3438 11.2207C18.3203 11.2207 19.248 11.4648 20.127 11.9531C20.5957 10.918 21.2891 10.0977 22.207 9.49219C23.125 8.88672 24.1504 8.58398 25.2832 8.58398C26.0254 8.58398 26.7383 8.7207 27.4219 8.99414C28.1055 9.26758 28.7109 9.67773 29.2383 10.2246L45 25.9863V20.6836C45 19.9414 45.1367 19.2285 45.4102 18.5449C45.6836 17.8613 46.0938 17.2461 46.6406 16.6992C47.168 16.1914 47.7734 15.791 48.457 15.498C49.1406 15.2051 49.8633 15.0586 50.625 15.0586C51.4062 15.0586 52.1387 15.2051 52.8223 15.498C53.5059 15.791 54.1016 16.1914 54.6094 16.6992C55.1172 17.207 55.5176 17.8027 55.8105 18.4863C56.1035 19.1699 56.25 19.9023 56.25 20.6836V41.0449ZM52.5 40.957V20.6836C52.5 20.1758 52.3145 19.7363 51.9434 19.3652C51.5723 18.9941 51.1328 18.8086 50.625 18.8086C50.0977 18.8086 49.6582 18.9844 49.3066 19.3359C48.9551 19.6875 48.7695 20.1367 48.75 20.6836V27.334C48.75 27.9785 48.5742 28.5645 48.2227 29.0918C47.8711 29.6191 47.3926 30.0098 46.7871 30.2637C46.5918 30.3613 46.3965 30.4199 46.2012 30.4395C46.0059 30.459 45.791 30.4785 45.5566 30.498C44.6582 30.498 43.9062 30.1953 43.3008 29.5898L26.6016 12.8906C26.2305 12.5195 25.791 12.334 25.2832 12.334C24.7754 12.334 24.3359 12.5195 23.9648 12.8906C23.5938 13.2617 23.4082 13.7012 23.4082 14.209C23.4082 14.7168 23.5938 15.1562 23.9648 15.5273L34.541 26.1035C34.9121 26.4746 35.0977 26.9141 35.0977 27.4219C35.0977 27.9297 34.9121 28.3691 34.541 28.7402C34.1699 29.1113 33.7305 29.2969 33.2227 29.2969C32.7148 29.2969 32.2754 29.1113 31.9043 28.7402L18.6621 15.5273C18.291 15.1562 17.8516 14.9707 17.3438 14.9707C16.8359 14.9707 16.3965 15.1562 16.0254 15.5273C15.6543 15.8984 15.4688 16.3379 15.4688 16.8457C15.4688 17.3535 15.6543 17.793 16.0254 18.1641L29.2383 31.377C29.6094 31.748 29.7949 32.1973 29.7949 32.7246C29.7949 33.2324 29.6094 33.6719 29.2383 34.043C28.8672 34.4141 28.4277 34.5996 27.9199 34.5996C27.4121 34.5996 26.9727 34.4141 26.6016 34.043L16.0254 23.4668C15.6543 23.0957 15.2148 22.9102 14.707 22.9102C14.1992 22.9102 13.7598 23.0957 13.3887 23.4668C13.0176 23.8379 12.832 24.2773 12.832 24.7852C12.832 25.293 13.0176 25.7324 13.3887 26.1035L25.2832 37.998C25.6543 38.3691 25.8398 38.8086 25.8398 39.3164C25.8398 39.8242 25.6543 40.2637 25.2832 40.6348C24.9121 41.0059 24.4727 41.1914 23.9648 41.1914C23.457 41.1914 23.0176 41.0059 22.6465 40.6348L13.3594 31.4062C12.9883 31.0352 12.5586 30.8496 12.0703 30.8496C11.5625 30.8496 11.123 31.0254 10.752 31.377C10.3809 31.7285 10.1953 32.1777 10.1953 32.7246C10.1953 33.2129 10.3809 33.6426 10.752 34.0137L28.916 52.207C30.2051 53.4961 31.7285 54.4727 33.4863 55.1367C35.2441 55.8008 37.0312 56.1426 38.8477 56.1621C40.8984 56.1621 42.7637 55.7422 44.4434 54.9023C46.123 54.0625 47.5586 52.9297 48.75 51.5039C49.9414 50.0781 50.8594 48.4668 51.5039 46.6699C52.1484 44.873 52.4805 42.9688 52.5 40.957ZM33.75 1.875C33.75 1.36719 33.9355 0.927734 34.3066 0.556641C34.6777 0.185547 35.1172 0 35.625 0C37.4414 0 39.1406 0.341797 40.7227 1.02539C42.3047 1.70898 43.7012 2.64648 44.9121 3.83789C46.123 5.0293 47.0605 6.41602 47.7246 7.99805C48.3887 9.58008 48.7305 11.2891 48.75 13.125C48.75 13.6328 48.5645 14.0723 48.1934 14.4434C47.8223 14.8145 47.3828 15 46.875 15C46.3672 15 45.9277 14.8145 45.5566 14.4434C45.1855 14.0723 45 13.6328 45 13.125C45 11.8359 44.7559 10.625 44.2676 9.49219C43.7793 8.35938 43.1055 7.37305 42.2461 6.5332C41.3867 5.69336 40.3906 5.01953 39.2578 4.51172C38.125 4.00391 36.9141 3.75 35.625 3.75C35.1172 3.75 34.6777 3.56445 34.3066 3.19336C33.9355 2.82227 33.75 2.38281 33.75 1.875ZM33.75 8.4375C33.75 7.92969 33.9355 7.49023 34.3066 7.11914C34.6777 6.74805 35.1172 6.5625 35.625 6.5625C36.5234 6.5625 37.373 6.72852 38.1738 7.06055C38.9746 7.39258 39.668 7.86133 40.2539 8.4668C40.8398 9.07227 41.3086 9.77539 41.6602 10.5762C42.0117 11.377 42.1875 12.2266 42.1875 13.125C42.1875 13.6328 42.002 14.0723 41.6309 14.4434C41.2598 14.8145 40.8203 15 40.3125 15C39.8047 15 39.3652 14.8145 38.9941 14.4434C38.623 14.0723 38.4375 13.6328 38.4375 13.125C38.4375 12.3438 38.1641 11.6797 37.6172 11.1328C37.0703 10.5859 36.4062 10.3125 35.625 10.3125C35.1172 10.3125 34.6777 10.127 34.3066 9.75586C33.9355 9.38477 33.75 8.94531 33.75 8.4375ZM15 54.375C15 54.8828 14.8145 55.3223 14.4434 55.6934C14.0723 56.0645 13.6328 56.25 13.125 56.25C11.3086 56.25 9.60938 55.9082 8.02734 55.2246C6.44531 54.541 5.04883 53.6035 3.83789 52.4121C2.62695 51.2207 1.68945 49.834 1.02539 48.252C0.361328 46.6699 0.0195312 44.9609 0 43.125C0 42.6172 0.185547 42.1777 0.556641 41.8066C0.927734 41.4355 1.36719 41.25 1.875 41.25C2.38281 41.25 2.82227 41.4355 3.19336 41.8066C3.56445 42.1777 3.75 42.6172 3.75 43.125C3.75 44.4141 3.99414 45.625 4.48242 46.7578C4.9707 47.8906 5.63477 48.8867 6.47461 49.7461C7.31445 50.6055 8.31055 51.2793 9.46289 51.7676C10.6152 52.2559 11.8359 52.5 13.125 52.5C13.6328 52.5 14.0723 52.6855 14.4434 53.0566C14.8145 53.4277 15 53.8672 15 54.375ZM15 47.8125C15 48.3203 14.8145 48.7598 14.4434 49.1309C14.0723 49.502 13.6328 49.6875 13.125 49.6875C12.207 49.6875 11.3574 49.5215 10.5762 49.1895C9.79492 48.8574 9.10156 48.3887 8.49609 47.7832C7.89062 47.1777 7.42188 46.4844 7.08984 45.7031C6.75781 44.9219 6.58203 44.0625 6.5625 43.125C6.5625 42.6172 6.74805 42.1777 7.11914 41.8066C7.49023 41.4355 7.92969 41.25 8.4375 41.25C8.94531 41.25 9.38477 41.4355 9.75586 41.8066C10.127 42.1777 10.3125 42.6172 10.3125 43.125C10.3125 43.9062 10.5859 44.5703 11.1328 45.1172C11.6797 45.6641 12.3438 45.9375 13.125 45.9375C13.6328 45.9375 14.0723 46.123 14.4434 46.4941C14.8145 46.8652 15 47.3047 15 47.8125Z" fill="#B480FF"/>
</g>
</svg>
